<?xml version="1.0" encoding="UTF-8" standalone="no"?>
<!-- Created with Inkscape (http://www.inkscape.org/) -->

<svg
   xmlns:dc="http://purl.org/dc/elements/1.1/"
   xmlns:cc="http://creativecommons.org/ns#"
   xmlns:rdf="http://www.w3.org/1999/02/22-rdf-syntax-ns#"
   xmlns:svg="http://www.w3.org/2000/svg"
   xmlns="http://www.w3.org/2000/svg"
   xmlns:sodipodi="http://sodipodi.sourceforge.net/DTD/sodipodi-0.dtd"
   xmlns:inkscape="http://www.inkscape.org/namespaces/inkscape"
   width="210mm"
   height="297mm"
   viewBox="0 0 210 297"
   version="1.1"
   id="svg8"
   inkscape:version="0.92.2 (5c3e80d, 2017-08-06)"
   sodipodi:docname="shapes.svg">
  <sodipodi:namedview
     id="base"
     pagecolor="#ffffff"
     bordercolor="#666666"
     borderopacity="1.0"
     inkscape:pageopacity="0.0"
     inkscape:pageshadow="2"
     inkscape:zoom="1.979899"
     inkscape:cx="172.19378"
     inkscape:cy="879.9268"
     inkscape:document-units="mm"
     inkscape:current-layer="layer1"
     showgrid="false"
     inkscape:window-width="1920"
     inkscape:window-height="1025"
     inkscape:window-x="0"
     inkscape:window-y="27"
     inkscape:window-maximized="1" />
  <defs
     id="defs2" />
  <metadata
     id="metadata5">
    <rdf:RDF>
      <cc:Work
         rdf:about="">
        <dc:format>image/svg+xml</dc:format>
        <dc:type
           rdf:resource="http://purl.org/dc/dcmitype/StillImage" />
        <dc:title />
      </cc:Work>
    </rdf:RDF>
  </metadata>
  <g
     id="layer1"
     inkscape:groupmode="layer"
     inkscape:label="Ebene 1">
    <text
       transform="matrix(1.000000,0.000000,0.000000,1.000000,0.000000,0.000000)"
       id="text817"
       y="176.04762"
       x="119.44047"
       style="stroke-linejoin:miter;font-size:8.46666622px;font-family:'Bitstream Vera Sans';writing-mode:lr-tb;stroke-opacity:1;fill-opacity:1;text-anchor:middle;letter-spacing:0px;-inkscape-font-specification:'Bitstream Vera Sans';line-height:125%;word-spacing:0px;stroke:none;stroke-linecap:butt;font-weight:normal;font-stretch:normal;font-variant:normal;text-align:center;stroke-width:0.0370439615287;font-style:normal;fill:#000000"
       xml:space="preserve"><tspan
         style="stroke-width:0.0370439615287"
         y="183.53864"
         x="119.44047"
         id="tspan815"
         sodipodi:role="line" /></text>
    <g
       aria-label="?"
       style="stroke-linejoin:miter;font-size:50.79999924px;fill-opacity:1;font-variant-numeric:normal;letter-spacing:0px;word-spacing:0px;stroke:none;stroke-linecap:butt;stroke-width:0.0574777664437;font-style:normal;fill:#000000;font-stretch:normal;stroke-miterlimit:4;font-variant:normal;font-weight:normal;opacity:1;-inkscape-font-specification:'ChunkFive, Normal';vector-effect:none;font-feature-settings:normal;font-variant-caps:normal;font-family:ChunkFive;text-align:center;font-variant-ligatures:normal;writing-mode:lr-tb;stroke-opacity:1;stroke-dashoffset:0;text-anchor:middle;stroke-dasharray:none;line-height:125%"
       id="g911"
       class="q">
      <path
         id="path905"
         d="M81.111591 6.6193827C60.091241 6.5803908 40.026989 18.809443 29.09848 36.507353C21.095983 50.149531 22.328229 68.521509 31.836051 81.131596C30.230023 101.16849 42.958547 121.01375 61.512695 128.49545C82.907924 138.25329 110.40575 129.68937 122.71055 109.71425C126.84138 103.40403 129.20601 96.037718 129.70345 88.524528C140.28274 72.514339 140.60757 50.765803 131.0371 34.210851C121.89024 17.683217 103.51305 6.8881188 84.64734 6.7500987C89.490938 7.146988 81.114637 6.3654851 81.111591 6.6193827C81.111591 6.6193827 81.111591 6.6193827 81.111591 6.6193827M32.183251 32.348923C31.977585 32.749439 31.669762 32.687122 32.183251 32.348923C32.183251 32.348923 32.183251 32.348923 32.183251 32.348923M31.345385 33.221074C29.729325 35.50838 30.870456 33.604681 31.345385 33.221074C31.345385 33.221074 31.345385 33.221074 31.345385 33.221074"
         style="opacity:1;stroke-linejoin:miter;vector-effect:none;stroke-opacity:1;fill-opacity:1;stroke-dashoffset:0;stroke:none;stroke-linecap:butt;stroke-miterlimit:4;stroke-dasharray:none;stroke-width:0.019602428595;fill:#407eff" />
      <path
         id="path907"
         d="M81.3018507944 30.5640797916C68.7277759913 30.6174672907 56.7641432439 37.9056497634 49.9744514576 48.3113121882C51.0908229018 46.317274836 48.3319498309 50.9013047786 48.3823344203 51.7637498734C46.2436483242 58.6151565553 49.0256669496 66.5748376871 54.8926447941 70.6853295099C57.9720568042 73.5367672442 56.4420057517 77.8326879167 55.7233810497 81.3071619339C54.4295943665 91.4050848145 60.5089482527 101.675472577 69.6791245475 105.905889882C82.0657396695 112.280045676 98.9217190066 106.101775703 104.382655627 93.3107222988C106.195921547 89.2325306809 106.855596181 84.6301157337 106.149303486 80.2160458707C113.320541443 73.0454673031 115.848021507 61.7812075016 112.76715906 52.1456932137C109.111761106 39.3778873989 96.2556903733 30.2112285788 83.0227879391 30.594726586C82.4496611779 30.5664529351 81.8756292649 30.5548779636 81.3018486001 30.5641708554M51.1861096035 46.3854662299C50.5161326965 47.3241481466 50.5278316464 47.4979745959 51.1861096035 46.3854662299C51.1861096035 46.3854662299 51.1861096035 46.3854662299 51.1861096035 46.3854662299M70.2272263299 77.1033275658C70.6393172597 79.4743600951 70.1054499493 80.2744001846 70.2996165311 77.6193606427C70.2755120643 77.4473752173 70.2512210814 77.2752197331 70.2272263299 77.1033275658C70.2272263299 77.1033275658 70.2272263299 77.1033275658 70.2272263299 77.1033275658"
         style="opacity:1;stroke-linejoin:miter;vector-effect:none;stroke-opacity:1;fill-opacity:1;stroke-dashoffset:0;stroke:none;stroke-linecap:butt;stroke-miterlimit:4;stroke-dasharray:none;stroke-width:0.0574777664437;fill:#000000" />
      <path
         style="opacity:1;stroke-linejoin:miter;vector-effect:none;stroke-opacity:1;fill-opacity:1;stroke-dashoffset:0;stroke:none;stroke-linecap:butt;stroke-miterlimit:4;stroke-dasharray:none;stroke-width:0.0574777664437;fill:#000000"
         d="M81.3018507944 30.5640797916C68.7277759913 30.6174672907 56.7641432439 37.9056497634 49.9744514576 48.3113121882C51.0908229018 46.317274836 48.3319498309 50.9013047786 48.3823344203 51.7637498734C46.2436483242 58.6151565553 49.0256669496 66.5748376871 54.8926447941 70.6853295099C57.9720568042 73.5367672442 56.4420057517 77.8326879167 55.7233810497 81.3071619339C54.4295943665 91.4050848145 60.5089482527 101.675472577 69.6791245475 105.905889882C82.0657396695 112.280045676 98.9217190066 106.101775703 104.382655627 93.3107222988C106.195921547 89.2325306809 106.855596181 84.6301157337 106.149303486 80.2160458707C113.320541443 73.0454673031 115.848021507 61.7812075016 112.76715906 52.1456932137C109.111761106 39.3778873989 96.2556903733 30.2112285788 83.0227879391 30.594726586C82.4496611779 30.5664529351 81.8756292649 30.5548779636 81.3018486001 30.5641708554M51.1861096035 46.3854662299C50.5161326965 47.3241481466 50.5278316464 47.4979745959 51.1861096035 46.3854662299C51.1861096035 46.3854662299 51.1861096035 46.3854662299 51.1861096035 46.3854662299M70.2272263299 77.1033275658C70.6393172597 79.4743600951 70.1054499493 80.2744001846 70.2996165311 77.6193606427C70.2755120643 77.4473752173 70.2512210814 77.2752197331 70.2272263299 77.1033275658C70.2272263299 77.1033275658 70.2272263299 77.1033275658 70.2272263299 77.1033275658"
         id="path909" />
    </g>
    <g
       class="q"
       id="g901"
       style="stroke-linejoin:miter;font-size:50.79999924px;fill-opacity:1;font-variant-numeric:normal;letter-spacing:0px;word-spacing:0px;stroke:none;stroke-linecap:butt;stroke-width:0.153611030251;font-style:normal;fill:#000000;font-stretch:normal;stroke-miterlimit:4;font-feature-settings:normal;font-weight:normal;opacity:1;-inkscape-font-specification:'ChunkFive, Normal';vector-effect:none;font-variant:normal;font-variant-caps:normal;font-family:ChunkFive;text-align:center;font-variant-ligatures:normal;writing-mode:lr-tb;stroke-opacity:1;stroke-dashoffset:0;text-anchor:middle;stroke-dasharray:none;line-height:125%"
       aria-label="?">
      <path
         inkscape:connector-curvature="0"
         id="path895"
         d="m 81.186592,17.061629 c -18.256083,0.06814 -35.91698,11.156665 -44.403946,27.219191 -4.894962,10.998928 -2.611915,24.907916 5.879274,33.522832 -3.831126,18.439859 9.246096,37.784788 27.1122,42.712148 19.918766,6.26728 44.1448,-6.39738 48.7484,-27.138525 0.65889,-5.429623 1.78,-10.867761 5.18967,-15.249482 8.8701,-18.633219 1.71551,-43.200623 -16.04942,-53.864618 -7.822551,-5.006902 -17.190359,-7.587291 -26.476178,-7.201546 z"
         style="opacity:1;vector-effect:none;fill:#00040b;fill-opacity:1;stroke:none;stroke-width:0.14000867;stroke-linecap:butt;stroke-linejoin:miter;stroke-miterlimit:4;stroke-dasharray:none;stroke-dashoffset:0;stroke-opacity:1" />
      <path
         style="opacity:1;stroke-linejoin:miter;vector-effect:none;stroke-opacity:1;fill-opacity:1;stroke-dashoffset:0;stroke:none;stroke-linecap:butt;stroke-miterlimit:4;stroke-dasharray:none;stroke-width:0.153611030251;fill:#000000"
         d="M81.3018507944 30.5640797916C68.7277759913 30.6174672907 56.7641432439 37.9056497634 49.9744514576 48.3113121882C51.0908229018 46.317274836 48.3319498309 50.9013047786 48.3823344203 51.7637498734C46.2436483242 58.6151565553 49.0256669496 66.5748376871 54.8926447941 70.6853295099C57.9720568042 73.5367672442 56.4420057517 77.8326879167 55.7233810497 81.3071619339C54.4295943665 91.4050848145 60.5089482527 101.675472577 69.6791245475 105.905889882C82.0657396695 112.280045676 98.9217190066 106.101775703 104.382655627 93.3107222988C106.195921547 89.2325306809 106.855596181 84.6301157337 106.149303486 80.2160458707C113.320541443 73.0454673031 115.848021507 61.7812075016 112.76715906 52.1456932137C109.111761106 39.3778873989 96.2556903733 30.2112285788 83.0227879391 30.594726586C82.4496611779 30.5664529351 81.8756292649 30.5548779636 81.3018486001 30.5641708554M51.1861096035 46.3854662299C50.5161326965 47.3241481466 50.5278316464 47.4979745959 51.1861096035 46.3854662299C51.1861096035 46.3854662299 51.1861096035 46.3854662299 51.1861096035 46.3854662299M70.2272263299 77.1033275658C70.6393172597 79.4743600951 70.1054499493 80.2744001846 70.2996165311 77.6193606427C70.2755120643 77.4473752173 70.2512210814 77.2752197331 70.2272263299 77.1033275658C70.2272263299 77.1033275658 70.2272263299 77.1033275658 70.2272263299 77.1033275658"
         id="path897" />
      <path
         id="path899"
         d="M81.3018507944 30.5640797916C68.7277759913 30.6174672907 56.7641432439 37.9056497634 49.9744514576 48.3113121882C51.0908229018 46.317274836 48.3319498309 50.9013047786 48.3823344203 51.7637498734C46.2436483242 58.6151565553 49.0256669496 66.5748376871 54.8926447941 70.6853295099C57.9720568042 73.5367672442 56.4420057517 77.8326879167 55.7233810497 81.3071619339C54.4295943665 91.4050848145 60.5089482527 101.675472577 69.6791245475 105.905889882C82.0657396695 112.280045676 98.9217190066 106.101775703 104.382655627 93.3107222988C106.195921547 89.2325306809 106.855596181 84.6301157337 106.149303486 80.2160458707C113.320541443 73.0454673031 115.848021507 61.7812075016 112.76715906 52.1456932137C109.111761106 39.3778873989 96.2556903733 30.2112285788 83.0227879391 30.594726586C82.4496611779 30.5664529351 81.8756292649 30.5548779636 81.3018486001 30.5641708554M51.1861096035 46.3854662299C50.5161326965 47.3241481466 50.5278316464 47.4979745959 51.1861096035 46.3854662299C51.1861096035 46.3854662299 51.1861096035 46.3854662299 51.1861096035 46.3854662299M70.2272263299 77.1033275658C70.6393172597 79.4743600951 70.1054499493 80.2744001846 70.2996165311 77.6193606427C70.2755120643 77.4473752173 70.2512210814 77.2752197331 70.2272263299 77.1033275658C70.2272263299 77.1033275658 70.2272263299 77.1033275658 70.2272263299 77.1033275658"
         style="opacity:1;stroke-linejoin:miter;vector-effect:none;stroke-opacity:1;fill-opacity:1;stroke-dashoffset:0;stroke:none;stroke-linecap:butt;stroke-miterlimit:4;stroke-dasharray:none;stroke-width:0.153611030251;fill:#000000" />
    </g>
    <g
       aria-label="?"
       style="stroke-linejoin:miter;font-size:50.79999924px;fill-opacity:1;font-variant-numeric:normal;letter-spacing:0px;word-spacing:0px;stroke:none;stroke-linecap:butt;stroke-width:0.153611030251;font-style:normal;fill:#000000;font-stretch:normal;stroke-miterlimit:4;font-feature-settings:normal;font-weight:normal;opacity:1;-inkscape-font-specification:'ChunkFive, Normal';vector-effect:none;font-variant:normal;font-variant-caps:normal;font-family:ChunkFive;text-align:center;font-variant-ligatures:normal;writing-mode:lr-tb;stroke-opacity:1;stroke-dashoffset:0;text-anchor:middle;stroke-dasharray:none;line-height:125%"
       id="g877"
       class="q">
      <path
         inkscape:connector-curvature="0"
         id="path875"
         d="m 81.240163,24.679562 c -15.944168,0.148744 -31.650465,10.079573 -38.248515,24.622703 -3.10933,9.119408 -0.0089,20.357407 8.149204,25.802229 -4.942291,13.753194 2.596091,29.886666 15.641756,35.985506 13.170494,7.03383 30.532423,2.60086 39.380522,-9.21245 3.90103,-4.835119 5.8802,-10.995448 5.80986,-17.148471 C 113.6525,78.716272 118.53384,74.021 119.24937,67.619894 122.56238,51.89585 113.91921,34.580046 99.093351,28.162444 93.54911,25.562873 87.360243,24.304564 81.240163,24.679562 Z"
         style="opacity:1;vector-effect:none;fill:#407eff;fill-opacity:1;stroke:none;stroke-width:0.14000867;stroke-linecap:butt;stroke-linejoin:miter;stroke-miterlimit:4;stroke-dasharray:none;stroke-dashoffset:0;stroke-opacity:1" />
      <path
         id="path871"
         d="M81.3018507944 30.5640797916C68.7277759913 30.6174672907 56.7641432439 37.9056497634 49.9744514576 48.3113121882C51.0908229018 46.317274836 48.3319498309 50.9013047786 48.3823344203 51.7637498734C46.2436483242 58.6151565553 49.0256669496 66.5748376871 54.8926447941 70.6853295099C57.9720568042 73.5367672442 56.4420057517 77.8326879167 55.7233810497 81.3071619339C54.4295943665 91.4050848145 60.5089482527 101.675472577 69.6791245475 105.905889882C82.0657396695 112.280045676 98.9217190066 106.101775703 104.382655627 93.3107222988C106.195921547 89.2325306809 106.855596181 84.6301157337 106.149303486 80.2160458707C113.320541443 73.0454673031 115.848021507 61.7812075016 112.76715906 52.1456932137C109.111761106 39.3778873989 96.2556903733 30.2112285788 83.0227879391 30.594726586C82.4496611779 30.5664529351 81.8756292649 30.5548779636 81.3018486001 30.5641708554M51.1861096035 46.3854662299C50.5161326965 47.3241481466 50.5278316464 47.4979745959 51.1861096035 46.3854662299C51.1861096035 46.3854662299 51.1861096035 46.3854662299 51.1861096035 46.3854662299M70.2272263299 77.1033275658C70.6393172597 79.4743600951 70.1054499493 80.2744001846 70.2996165311 77.6193606427C70.2755120643 77.4473752173 70.2512210814 77.2752197331 70.2272263299 77.1033275658C70.2272263299 77.1033275658 70.2272263299 77.1033275658 70.2272263299 77.1033275658"
         style="opacity:1;stroke-linejoin:miter;vector-effect:none;stroke-opacity:1;fill-opacity:1;stroke-dashoffset:0;stroke:none;stroke-linecap:butt;stroke-miterlimit:4;stroke-dasharray:none;stroke-width:0.153611030251;fill:#000000" />
      <path
         style="opacity:1;stroke-linejoin:miter;vector-effect:none;stroke-opacity:1;fill-opacity:1;stroke-dashoffset:0;stroke:none;stroke-linecap:butt;stroke-miterlimit:4;stroke-dasharray:none;stroke-width:0.153611030251;fill:#000000"
         d="M81.3018507944 30.5640797916C68.7277759913 30.6174672907 56.7641432439 37.9056497634 49.9744514576 48.3113121882C51.0908229018 46.317274836 48.3319498309 50.9013047786 48.3823344203 51.7637498734C46.2436483242 58.6151565553 49.0256669496 66.5748376871 54.8926447941 70.6853295099C57.9720568042 73.5367672442 56.4420057517 77.8326879167 55.7233810497 81.3071619339C54.4295943665 91.4050848145 60.5089482527 101.675472577 69.6791245475 105.905889882C82.0657396695 112.280045676 98.9217190066 106.101775703 104.382655627 93.3107222988C106.195921547 89.2325306809 106.855596181 84.6301157337 106.149303486 80.2160458707C113.320541443 73.0454673031 115.848021507 61.7812075016 112.76715906 52.1456932137C109.111761106 39.3778873989 96.2556903733 30.2112285788 83.0227879391 30.594726586C82.4496611779 30.5664529351 81.8756292649 30.5548779636 81.3018486001 30.5641708554M51.1861096035 46.3854662299C50.5161326965 47.3241481466 50.5278316464 47.4979745959 51.1861096035 46.3854662299C51.1861096035 46.3854662299 51.1861096035 46.3854662299 51.1861096035 46.3854662299M70.2272263299 77.1033275658C70.6393172597 79.4743600951 70.1054499493 80.2744001846 70.2996165311 77.6193606427C70.2755120643 77.4473752173 70.2512210814 77.2752197331 70.2272263299 77.1033275658C70.2272263299 77.1033275658 70.2272263299 77.1033275658 70.2272263299 77.1033275658"
         id="path873" />
    </g>
    <g
       class="q"
       id="g902"
       style="stroke-linejoin:miter;font-size:50.79999924px;fill-opacity:1;font-variant-numeric:normal;letter-spacing:0px;word-spacing:0px;stroke:none;stroke-linecap:butt;stroke-width:0.153611030251;font-style:normal;fill:#000000;font-stretch:normal;stroke-miterlimit:4;font-feature-settings:normal;font-weight:normal;opacity:1;-inkscape-font-specification:'ChunkFive, Normal';vector-effect:none;font-variant:normal;font-variant-caps:normal;font-family:ChunkFive;text-align:center;font-variant-ligatures:normal;writing-mode:lr-tb;stroke-opacity:1;stroke-dashoffset:0;text-anchor:middle;stroke-dasharray:none;line-height:125%"
       aria-label="?">
      <path
         style="opacity:1;stroke-linejoin:miter;vector-effect:none;stroke-opacity:1;fill-opacity:1;stroke-dashoffset:0;stroke:none;stroke-linecap:butt;stroke-miterlimit:4;stroke-dasharray:none;stroke-width:0.153611030251;fill:#000000"
         d="M81.3018507944 30.5640797916C68.7277759913 30.6174672907 56.7641432439 37.9056497634 49.9744514576 48.3113121882C51.0908229018 46.317274836 48.3319498309 50.9013047786 48.3823344203 51.7637498734C46.2436483242 58.6151565553 49.0256669496 66.5748376871 54.8926447941 70.6853295099C57.9720568042 73.5367672442 56.4420057517 77.8326879167 55.7233810497 81.3071619339C54.4295943665 91.4050848145 60.5089482527 101.675472577 69.6791245475 105.905889882C82.0657396695 112.280045676 98.9217190066 106.101775703 104.382655627 93.3107222988C106.195921547 89.2325306809 106.855596181 84.6301157337 106.149303486 80.2160458707C113.320541443 73.0454673031 115.848021507 61.7812075016 112.76715906 52.1456932137C109.111761106 39.3778873989 96.2556903733 30.2112285788 83.0227879391 30.594726586C82.4496611779 30.5664529351 81.8756292649 30.5548779636 81.3018486001 30.5641708554M51.1861096035 46.3854662299C50.5161326965 47.3241481466 50.5278316464 47.4979745959 51.1861096035 46.3854662299C51.1861096035 46.3854662299 51.1861096035 46.3854662299 51.1861096035 46.3854662299M70.2272263299 77.1033275658C70.6393172597 79.4743600951 70.1054499493 80.2744001846 70.2996165311 77.6193606427C70.2755120643 77.4473752173 70.2512210814 77.2752197331 70.2272263299 77.1033275658C70.2272263299 77.1033275658 70.2272263299 77.1033275658 70.2272263299 77.1033275658"
         id="path900" />
      <path
         id="path857"
         d="M81.3018507944 30.5640797916C68.7277759913 30.6174672907 56.7641432439 37.9056497634 49.9744514576 48.3113121882C51.0908229018 46.317274836 48.3319498309 50.9013047786 48.3823344203 51.7637498734C46.2436483242 58.6151565553 49.0256669496 66.5748376871 54.8926447941 70.6853295099C57.9720568042 73.5367672442 56.4420057517 77.8326879167 55.7233810497 81.3071619339C54.4295943665 91.4050848145 60.5089482527 101.675472577 69.6791245475 105.905889882C82.0657396695 112.280045676 98.9217190066 106.101775703 104.382655627 93.3107222988C106.195921547 89.2325306809 106.855596181 84.6301157337 106.149303486 80.2160458707C113.320541443 73.0454673031 115.848021507 61.7812075016 112.76715906 52.1456932137C109.111761106 39.3778873989 96.2556903733 30.2112285788 83.0227879391 30.594726586C82.4496611779 30.5664529351 81.8756292649 30.5548779636 81.3018486001 30.5641708554M51.1861096035 46.3854662299C50.5161326965 47.3241481466 50.5278316464 47.4979745959 51.1861096035 46.3854662299C51.1861096035 46.3854662299 51.1861096035 46.3854662299 51.1861096035 46.3854662299M70.2272263299 77.1033275658C70.6393172597 79.4743600951 70.1054499493 80.2744001846 70.2996165311 77.6193606427C70.2755120643 77.4473752173 70.2512210814 77.2752197331 70.2272263299 77.1033275658C70.2272263299 77.1033275658 70.2272263299 77.1033275658 70.2272263299 77.1033275658"
         style="opacity:1;stroke-linejoin:miter;vector-effect:none;stroke-opacity:1;fill-opacity:1;stroke-dashoffset:0;stroke:none;stroke-linecap:butt;stroke-miterlimit:4;stroke-dasharray:none;stroke-width:0.153611030251;fill:#000000" />
      <path
         style="opacity:1;vector-effect:none;fill:#000000;fill-opacity:1;stroke:none;stroke-width:0.15361103;stroke-linecap:butt;stroke-linejoin:miter;stroke-miterlimit:4;stroke-dasharray:none;stroke-dashoffset:0;stroke-opacity:1"
         d="m 81.301851,30.56408 c -13.453546,0.151285 -26.529513,8.314049 -32.621641,20.286085 -2.746615,7.181204 0.261642,15.826263 6.521101,20.145137 3.354532,3.867673 0.07871,8.902182 0.344081,13.309016 0.05541,12.850534 11.67639,24.197262 24.49675,24.150242 12.045555,0.2885 24.201948,-8.515798 26.040158,-20.737152 0.8876,-3.822664 -1.07755,-7.958099 2.67862,-10.541627 7.78583,-10.572328 6.77666,-26.370962 -2.06093,-36.026854 C 100.42716,34.001131 90.806603,29.938645 81.301849,30.564149 M 51.18611,46.385466 50.74753,47.07245 Z m 19.041116,30.717862 c 0.223136,1.373419 0.04454,2.613981 0.0021,0.454137 z"
         id="path859"
         inkscape:connector-curvature="0" />
    </g>
    <g
       aria-label="?"
       style="stroke-linejoin:miter;font-size:50.79999924px;fill-opacity:1;font-variant-numeric:normal;letter-spacing:0px;word-spacing:0px;stroke:none;stroke-linecap:butt;stroke-width:0.14000867215;font-style:normal;fill:#407eff;font-stretch:normal;stroke-miterlimit:4;font-variant:normal;font-weight:normal;opacity:1;-inkscape-font-specification:'ChunkFive, Normal';vector-effect:none;font-variant-east_asian:normal;font-feature-settings:normal;font-variant-caps:normal;font-family:ChunkFive;text-align:center;font-variant-ligatures:normal;writing-mode:lr-tb;stroke-opacity:1;stroke-dashoffset:0;text-anchor:middle;stroke-dasharray:none;line-height:125%"
       id="g890">
      <path
         style="opacity:1;stroke-linejoin:miter;vector-effect:none;stroke-opacity:1;fill-opacity:1;stroke-dashoffset:0;stroke:none;stroke-linecap:butt;stroke-miterlimit:4;stroke-dasharray:none;stroke-width:0.0523880714894;fill:#407eff"
         d="M81.285994 35.420059C70.311913 35.440349 59.918696 41.860963 53.910791 50.855109C50.766604 56.007249 51.585084 63.047683 55.746749 67.384973C57.448086 69.115483 59.592484 70.411568 60.311996 73.336978C60.579942 77.18081 58.63758 80.87731 59.311844 84.754528C60.266752 95.092926 69.886631 103.5486 80.194282 103.57992C90.194935 103.85411 100.15762 96.796684 102.26982 86.84507C103.43558 84.048218 101.89642 80.488753 103.05831 78.113563C110.72264 70.336682 111.80049 57.32244 105.96542 48.179085C101.10989 40.126976 91.792531 35.078616 82.391256 35.43009C82.391256 35.43009 81.838691 35.41825 81.838691 35.41825C81.838691 35.41825 81.285994 35.420059 81.285994 35.420059M54.922745 49.299833C54.184666 50.379945 54.617271 49.828638 54.922745 49.299833C54.922745 49.299833 54.922745 49.299833 54.922745 49.299833M69.789537 76.713145C70.080067 78.71708 69.728057 78.67095 69.789537 76.713145C69.789537 76.713145 69.789537 76.713145 69.789537 76.713145"
         id="path888" />
    </g>
    <g
       id="g884"
       style="stroke-linejoin:miter;font-size:50.79999924px;fill-opacity:1;font-variant-numeric:normal;letter-spacing:0px;word-spacing:0px;stroke:none;stroke-linecap:butt;stroke-width:0.14000867215;font-style:normal;fill:#000000;font-stretch:normal;stroke-miterlimit:4;font-variant:normal;font-weight:normal;opacity:1;-inkscape-font-specification:'ChunkFive, Normal';vector-effect:none;font-variant-east_asian:normal;font-feature-settings:normal;font-variant-caps:normal;font-family:ChunkFive;text-align:center;font-variant-ligatures:normal;writing-mode:lr-tb;stroke-opacity:1;stroke-dashoffset:0;text-anchor:middle;stroke-dasharray:none;line-height:125%"
       aria-label="?">
      <path
         inkscape:connector-curvature="0"
         id="path882"
         d="m 81.358858,40.004277 c -9.584196,0.02651 -18.588921,5.72884 -23.781839,13.602067 -2.114932,3.983366 -0.800458,9.453157 2.980259,11.951716 2.064718,2.444067 5.061194,4.668951 4.397646,8.282392 0.305883,3.50963 -1.68984,6.768989 -1.08067,10.290457 0.520294,5.742705 4.370678,10.889589 9.589711,13.263173 9.112187,4.525818 21.653179,-0.926105 24.157167,-10.895218 0.83245,-3.074597 0.748726,-6.419651 -0.392973,-9.405356 C 105.83445,71.234091 107.56189,58.125635 101.5552,49.824529 97.516602,43.71265 90.293539,39.811487 82.940633,40.042267 c -0.526495,-0.03158 -1.05423,-0.05465 -1.581775,-0.03799 z m 15.182535,35.441763 0.0181,0.04238 z"
         style="opacity:1;vector-effect:none;fill:#000000;fill-opacity:1;stroke:none;stroke-width:0.05238807;stroke-linecap:butt;stroke-linejoin:miter;stroke-miterlimit:4;stroke-dasharray:none;stroke-dashoffset:0;stroke-opacity:1" />
    </g>
    <g
       aria-label="?"
       style="stroke-linejoin:miter;font-size:50.79999924px;fill-opacity:1;font-variant-numeric:normal;letter-spacing:0px;word-spacing:0px;stroke:none;stroke-linecap:butt;stroke-width:0.14000867215;font-style:normal;fill:#407eff;font-stretch:normal;stroke-miterlimit:4;font-variant:normal;font-weight:normal;opacity:1;-inkscape-font-specification:'ChunkFive, Normal';vector-effect:none;font-variant-east_asian:normal;font-feature-settings:normal;font-variant-caps:normal;font-family:ChunkFive;text-align:center;font-variant-ligatures:normal;writing-mode:lr-tb;stroke-opacity:1;stroke-dashoffset:0;text-anchor:middle;stroke-dasharray:none;line-height:125%"
       id="g871">
      <path
         inkscape:connector-curvature="0"
         id="path869"
         d="m 81.419318,43.811279 c -8.110216,-0.02206 -15.5459,4.801424 -20.247066,11.173794 -1.528743,2.553858 -0.595956,6.308518 2.047662,7.737723 0.506057,0.517167 2.600689,3.157305 3.771207,4.499783 1.338855,1.30742 2.807716,2.251325 1.740773,4.275897 -0.787594,2.27312 0.993838,4.655591 -0.20726,6.469624 -2.191545,5.173412 -0.31049,11.730533 4.507651,14.719417 4.860171,3.744844 12.139375,3.124665 16.710451,-0.802926 4.111658,-3.192873 5.821836,-9.11925 3.746374,-13.937671 -1.485018,-2.497517 1.329533,-3.861312 3.032693,-5.123974 2.679296,-2.374046 4.132277,-5.899247 4.685177,-9.377503 C 102.43759,54.538332 95.508265,45.660595 86.738175,44.17973 84.984309,43.892184 83.192604,43.8545 81.419318,43.811279 Z m -6.480223,31.623392 c -0.102065,0.633291 -1.996294,0.486677 -0.280016,0.26158 0.555586,-0.423188 0.412288,0.932562 0.280016,-0.26158 z"
         style="opacity:1;vector-effect:none;fill:#407eff;fill-opacity:1;stroke:none;stroke-width:0.14000867;stroke-linecap:butt;stroke-linejoin:miter;stroke-miterlimit:4;stroke-dasharray:none;stroke-dashoffset:0;stroke-opacity:1" />
    </g>
    <g
       id="g848"
       style="stroke-linejoin:miter;font-size:50.79999924px;fill-opacity:1;font-variant-numeric:normal;letter-spacing:0px;font-variant-ligatures:normal;stroke:none;stroke-linecap:butt;stroke-width:0.0370439615287;font-style:normal;fill:#000000;font-stretch:normal;font-variant:normal;font-weight:normal;-inkscape-font-specification:'ChunkFive, Normal';font-feature-settings:normal;font-variant-caps:normal;font-family:ChunkFive;text-align:center;word-spacing:0px;writing-mode:lr-tb;stroke-opacity:1;text-anchor:middle;line-height:125%"
       aria-label="?">
      <path
         id="path846"
         d="M81.467895 46.855538C74.262913 46.869268 67.637261 51.204418 63.550048 56.946353C62.65024 59.549664 65.92022 60.638461 67.045459 62.480095C68.648867 64.486008 70.189451 66.824077 72.719917 67.72815C72.410916 70.055021 70.998988 72.273338 71.742595 74.684038C72.678566 77.305069 70.965141 79.526273 70.647545 82.001963C70.23651 86.984221 74.44378 91.467152 79.273163 92.063772C85.090189 92.971369 91.511745 88.248831 91.360117 82.141685C91.108917 80.210797 90.051821 78.414825 90.089875 76.405631C89.783105 74.743019 90.440612 73.211874 91.942815 72.385502C93.730376 71.102491 95.795459 69.9196 96.656948 67.77136C99.409582 62.899411 98.559127 56.477904 94.888555 52.31558C91.920371 48.754103 87.281422 46.678776 82.64558 46.873661C82.253314 46.856091 81.860519 46.849281 81.467895 46.855541C81.467895 46.855541 81.467895 46.855538 81.467895 46.855538"
         style="opacity:1;fill-opacity:1;stroke-width:0.0138610103555;fill:#000000" />
    </g>
    <g
       aria-label="?"
       style="stroke-linejoin:miter;font-size:50.79999924px;fill-opacity:1;font-variant-numeric:normal;letter-spacing:0px;font-variant-ligatures:normal;stroke:none;stroke-linecap:butt;stroke-width:0.0370439615287;font-style:normal;fill:#407eff;font-stretch:normal;font-variant:normal;font-weight:normal;-inkscape-font-specification:'ChunkFive, Normal';font-feature-settings:normal;font-variant-caps:normal;font-family:ChunkFive;text-align:center;word-spacing:0px;writing-mode:lr-tb;stroke-opacity:1;text-anchor:middle;line-height:125%"
       id="g839">
      <path
         inkscape:connector-curvature="0"
         id="path835"
         d="m 81.506652,49.281746 c -6.293527,-0.02508 -11.938408,3.813663 -15.709636,8.614979 3.042399,1.889661 4.316719,5.695305 7.44818,7.467992 2.061434,0.963183 2.895673,-1.552445 4.123337,-2.580537 1.240501,-0.877661 2.82936,-1.965127 4.400966,-1.422816 0.699079,1.088042 -1.943532,1.767494 -2.586344,2.771613 -2.915341,2.423912 -5.600596,5.918564 -5.147907,9.928836 -0.100657,1.205244 0.782885,2.531341 1.275776,3.107572 -2.603264,2.659087 -3.158794,7.515789 -0.293681,10.195145 1.980945,1.782343 4.741097,2.873301 7.407377,2.180761 3.67203,-0.734221 7.117542,-4.246525 6.398911,-8.189151 0.05885,-1.644989 -1.987201,-3.307835 -1.885542,-4.317646 1.709726,-1.422017 0.02957,-4.271829 2.237771,-5.548143 1.950146,-1.747828 4.743832,-2.83841 5.631093,-5.516576 2.473426,-4.636019 0.512254,-10.548279 -3.418162,-13.720147 -2.321439,-2.030796 -5.403951,-2.966696 -8.455257,-2.941901 -0.475036,-0.02771 -0.951103,-0.03756 -1.426882,-0.02998 z"
         style="fill:#407eff;fill-opacity:1;stroke-width:0.03704396" />
    </g>
    <g
       id="text821"
       style="stroke-linejoin:miter;font-size:50.79999924px;fill-opacity:1;font-variant-numeric:normal;letter-spacing:0px;font-variant-ligatures:normal;stroke:none;stroke-linecap:butt;stroke-width:0.0370439615287;font-style:normal;fill:#000000;font-stretch:normal;font-variant:normal;font-weight:normal;-inkscape-font-specification:'ChunkFive, Normal';font-feature-settings:normal;font-variant-caps:normal;font-family:ChunkFive;text-align:center;word-spacing:0px;writing-mode:lr-tb;stroke-opacity:1;text-anchor:middle;line-height:125%"
       aria-label="?">
      <path
         inkscape:connector-curvature="0"
         id="path829"
         d="m 81.755859,51.279297 c -5.135038,-0.0548 -9.95327,2.697986 -13.207031,6.552734 1.828776,1.845703 3.657552,3.691407 5.486328,5.53711 1.654977,-1.847172 3.656364,-3.71015 6.188353,-4.141554 1.397973,-0.06266 3.227538,0.04207 3.980321,1.42694 0.613462,1.20869 -0.312124,2.425916 -1.212494,3.17245 -2.177852,1.976457 -5.03347,3.43993 -6.323917,6.212571 -0.575462,1.40165 -0.25838,2.936437 -0.312799,4.407642 0.0055,0.439478 0.01098,0.878957 0.01647,1.318435 3.132812,0 6.265625,0 9.398437,0 0.04383,-1.115443 -0.09744,-2.251206 0.09072,-3.351313 0.712441,-1.64873 2.460312,-2.475377 3.759072,-3.598855 2.183379,-1.622771 4.18109,-3.9601 4.222477,-6.816158 0.155691,-3.304534 -1.309092,-6.729996 -4.140934,-8.553228 -2.322236,-1.571037 -5.176097,-2.165203 -7.945006,-2.166774 z"
         style="stroke-width:0.03704396" />
      <path
         inkscape:connector-curvature="0"
         id="path823"
         d="m 74.999967,82.419581 c 0.01171,2.25627 1.742921,4.221467 3.825883,4.910409 1.671353,0.55296 3.560754,0.383341 5.138651,-0.381002 1.601712,-0.770421 2.772469,-2.407818 2.861227,-4.19824 0.149501,-1.908268 -0.904677,-3.803861 -2.536802,-4.775671 -1.760782,-1.063801 -4.044349,-1.247526 -5.945684,-0.456109 -1.932315,0.810965 -3.338458,2.785808 -3.343275,4.900613 z"
         style="stroke-width:0.03704396" />
    </g>
  </g>
</svg>
