<?xml version="1.0" encoding="UTF-8" standalone="no"?>
<!-- Created with Inkscape (http://www.inkscape.org/) -->

<svg
   xmlns:dc="http://purl.org/dc/elements/1.1/"
   xmlns:cc="http://creativecommons.org/ns#"
   xmlns:rdf="http://www.w3.org/1999/02/22-rdf-syntax-ns#"
   xmlns:svg="http://www.w3.org/2000/svg"
   xmlns="http://www.w3.org/2000/svg"
   xmlns:sodipodi="http://sodipodi.sourceforge.net/DTD/sodipodi-0.dtd"
   xmlns:inkscape="http://www.inkscape.org/namespaces/inkscape"
   width="210mm"
   height="297mm"
   viewBox="0 0 210 297"
   version="1.1"
   id="svg8"
   inkscape:version="0.92.2 (5c3e80d, 2017-08-06)"
   sodipodi:docname="shapes.svg">
  <sodipodi:namedview
     id="base"
     pagecolor="#ffffff"
     bordercolor="#666666"
     borderopacity="1.0"
     inkscape:pageopacity="0.0"
     inkscape:pageshadow="2"
     inkscape:zoom="1.979899"
     inkscape:cx="172.19378"
     inkscape:cy="879.9268"
     inkscape:document-units="mm"
     inkscape:current-layer="layer1"
     showgrid="false"
     inkscape:window-width="1920"
     inkscape:window-height="1025"
     inkscape:window-x="0"
     inkscape:window-y="27"
     inkscape:window-maximized="1" />
  <defs
     id="defs2" />
  <metadata
     id="metadata5">
    <rdf:RDF>
      <cc:Work
         rdf:about="">
        <dc:format>image/svg+xml</dc:format>
        <dc:type
           rdf:resource="http://purl.org/dc/dcmitype/StillImage" />
        <dc:title />
      </cc:Work>
    </rdf:RDF>
  </metadata>
  <g
     id="layer1"
     inkscape:groupmode="layer"
     inkscape:label="Ebene 1">
    <g
       id="g886">
      <path
         id="path905"
         d="M 81.111591,6.6193827 C 60.091241,6.5803908 40.026989,18.809443 29.09848,36.507353 c -8.002497,13.642178 -6.770251,32.014156 2.737571,44.624243 -1.606028,20.036894 11.122496,39.882154 29.676644,47.363854 21.395229,9.75784 48.893055,1.19392 61.197855,-18.7812 4.13083,-6.31022 6.49546,-13.676532 6.9929,-21.189722 C 140.28274,72.514339 140.60757,50.765803 131.0371,34.210851 121.89024,17.683217 103.51305,6.8881188 84.64734,6.7500987 89.490938,7.146988 81.114637,6.3654851 81.111591,6.6193827 c 0,0 0,0 0,0 M 32.183251,32.348923 c -0.205666,0.400516 -0.513489,0.338199 0,0 0,0 0,0 0,0 m -0.837866,0.872151 c -1.61606,2.287306 -0.474929,0.383607 0,0 0,0 0,0 0,0"
         style="font-style:normal;font-variant:normal;font-weight:normal;font-stretch:normal;font-size:medium;line-height:125%;font-family:ChunkFive;-inkscape-font-specification:'ChunkFive, Normal';font-variant-ligatures:normal;font-variant-caps:normal;font-variant-numeric:normal;font-feature-settings:normal;text-align:center;letter-spacing:0px;word-spacing:0px;writing-mode:lr-tb;text-anchor:middle;opacity:1;vector-effect:none;fill:#407eff;fill-opacity:1;stroke:none;stroke-width:0.01960243;stroke-linecap:butt;stroke-linejoin:miter;stroke-miterlimit:4;stroke-dasharray:none;stroke-dashoffset:0;stroke-opacity:1"
         inkscape:connector-curvature="0" />
    </g>
    <g
       id="g889">
      <path
         id="path907"
         d="m 81.301851,30.56408 c -12.574075,0.05339 -24.537708,7.34157 -31.3274,17.747232 1.116372,-1.994037 -1.642501,2.589993 -1.592117,3.452438 -2.138686,6.851407 0.643333,14.811088 6.510311,18.92158 3.079412,2.851437 1.549361,7.147358 0.830736,10.621832 -1.293787,10.097923 4.785567,20.368308 13.955744,24.598728 12.386615,6.37416 29.242594,0.19589 34.703535,-12.595168 1.81326,-4.078191 2.47294,-8.680606 1.76664,-13.094676 7.17124,-7.170579 9.69872,-18.434838 6.61786,-28.070353 -3.6554,-12.767806 -16.51147,-21.934464 -29.744372,-21.550966 -0.573127,-0.02827 -1.147159,-0.03985 -1.720939,-0.03056 M 51.18611,46.385466 c -0.669977,0.938682 -0.658278,1.112509 0,0 0,0 0,0 0,0 m 19.041116,30.717862 c 0.412091,2.371032 -0.121776,3.171072 0.07239,0.516033 -0.0241,-0.171986 -0.0484,-0.344141 -0.07239,-0.516033 0,0 0,0 0,0"
         style="font-style:normal;font-variant:normal;font-weight:normal;font-stretch:normal;font-size:medium;line-height:125%;font-family:ChunkFive;-inkscape-font-specification:'ChunkFive, Normal';font-variant-ligatures:normal;font-variant-caps:normal;font-variant-numeric:normal;font-feature-settings:normal;text-align:center;letter-spacing:0px;word-spacing:0px;writing-mode:lr-tb;text-anchor:middle;opacity:1;vector-effect:none;fill:#000000;fill-opacity:1;stroke:none;stroke-width:0.05747776;stroke-linecap:butt;stroke-linejoin:miter;stroke-miterlimit:4;stroke-dasharray:none;stroke-dashoffset:0;stroke-opacity:1"
         inkscape:connector-curvature="0" />
    </g>
    <g
       id="g892">
      <path
         inkscape:connector-curvature="0"
         id="path895"
         d="m 81.186592,17.061629 c -18.256083,0.06814 -35.91698,11.156665 -44.403946,27.219191 -4.894962,10.998928 -2.611915,24.907916 5.879274,33.522832 -3.831126,18.439859 9.246096,37.784788 27.1122,42.712148 19.918766,6.26728 44.1448,-6.39738 48.7484,-27.138525 0.65889,-5.429623 1.78,-10.867761 5.18967,-15.249482 8.8701,-18.633219 1.71551,-43.200623 -16.04942,-53.864618 -7.822551,-5.006902 -17.190359,-7.587291 -26.476178,-7.201546 z"
         style="font-style:normal;font-variant:normal;font-weight:normal;font-stretch:normal;font-size:medium;line-height:125%;font-family:ChunkFive;-inkscape-font-specification:'ChunkFive, Normal';font-variant-ligatures:normal;font-variant-caps:normal;font-variant-numeric:normal;font-feature-settings:normal;text-align:center;letter-spacing:0px;word-spacing:0px;writing-mode:lr-tb;text-anchor:middle;opacity:1;vector-effect:none;fill:#00040b;fill-opacity:1;stroke:none;stroke-width:0.14000867;stroke-linecap:butt;stroke-linejoin:miter;stroke-miterlimit:4;stroke-dasharray:none;stroke-dashoffset:0;stroke-opacity:1" />
    </g>
    <g
       id="g895">
      <path
         id="path899"
         d="m 81.301851,30.56408 c -12.574075,0.05339 -24.537708,7.34157 -31.3274,17.747232 1.116372,-1.994037 -1.642501,2.589993 -1.592117,3.452438 -2.138686,6.851407 0.643333,14.811088 6.510311,18.92158 3.079412,2.851437 1.549361,7.147358 0.830736,10.621832 -1.293787,10.097923 4.785567,20.368308 13.955744,24.598728 12.386615,6.37416 29.242594,0.19589 34.703535,-12.595168 1.81326,-4.078191 2.47294,-8.680606 1.76664,-13.094676 7.17124,-7.170579 9.69872,-18.434838 6.61786,-28.070353 -3.6554,-12.767806 -16.51147,-21.934464 -29.744372,-21.550966 -0.573127,-0.02827 -1.147159,-0.03985 -1.720939,-0.03056 M 51.18611,46.385466 c -0.669977,0.938682 -0.658278,1.112509 0,0 0,0 0,0 0,0 m 19.041116,30.717862 c 0.412091,2.371032 -0.121776,3.171072 0.07239,0.516033 -0.0241,-0.171986 -0.0484,-0.344141 -0.07239,-0.516033 0,0 0,0 0,0"
         style="font-style:normal;font-variant:normal;font-weight:normal;font-stretch:normal;font-size:medium;line-height:125%;font-family:ChunkFive;-inkscape-font-specification:'ChunkFive, Normal';font-variant-ligatures:normal;font-variant-caps:normal;font-variant-numeric:normal;font-feature-settings:normal;text-align:center;letter-spacing:0px;word-spacing:0px;writing-mode:lr-tb;text-anchor:middle;opacity:1;vector-effect:none;fill:#000000;fill-opacity:1;stroke:none;stroke-width:0.15361103;stroke-linecap:butt;stroke-linejoin:miter;stroke-miterlimit:4;stroke-dasharray:none;stroke-dashoffset:0;stroke-opacity:1"
         inkscape:connector-curvature="0" />
    </g>
    <g
       id="g898">
      <path
         inkscape:connector-curvature="0"
         id="path875"
         d="m 81.240163,24.679562 c -15.944168,0.148744 -31.650465,10.079573 -38.248515,24.622703 -3.10933,9.119408 -0.0089,20.357407 8.149204,25.802229 -4.942291,13.753194 2.596091,29.886666 15.641756,35.985506 13.170494,7.03383 30.532423,2.60086 39.380522,-9.21245 3.90103,-4.835119 5.8802,-10.995448 5.80986,-17.148471 C 113.6525,78.716272 118.53384,74.021 119.24937,67.619894 122.56238,51.89585 113.91921,34.580046 99.093351,28.162444 93.54911,25.562873 87.360243,24.304564 81.240163,24.679562 Z"
         style="font-style:normal;font-variant:normal;font-weight:normal;font-stretch:normal;font-size:medium;line-height:125%;font-family:ChunkFive;-inkscape-font-specification:'ChunkFive, Normal';font-variant-ligatures:normal;font-variant-caps:normal;font-variant-numeric:normal;font-feature-settings:normal;text-align:center;letter-spacing:0px;word-spacing:0px;writing-mode:lr-tb;text-anchor:middle;opacity:1;vector-effect:none;fill:#407eff;fill-opacity:1;stroke:none;stroke-width:0.14000867;stroke-linecap:butt;stroke-linejoin:miter;stroke-miterlimit:4;stroke-dasharray:none;stroke-dashoffset:0;stroke-opacity:1" />
    </g>
    <g
       id="g901">
      <path
         style="font-style:normal;font-variant:normal;font-weight:normal;font-stretch:normal;font-size:medium;line-height:125%;font-family:ChunkFive;-inkscape-font-specification:'ChunkFive, Normal';font-variant-ligatures:normal;font-variant-caps:normal;font-variant-numeric:normal;font-feature-settings:normal;text-align:center;letter-spacing:0px;word-spacing:0px;writing-mode:lr-tb;text-anchor:middle;opacity:1;vector-effect:none;fill:#000000;fill-opacity:1;stroke:none;stroke-width:0.15361103;stroke-linecap:butt;stroke-linejoin:miter;stroke-miterlimit:4;stroke-dasharray:none;stroke-dashoffset:0;stroke-opacity:1"
         d="m 81.301851,30.56408 c -13.453546,0.151285 -26.529513,8.314049 -32.621641,20.286085 -2.746615,7.181204 0.261642,15.826263 6.521101,20.145137 3.354532,3.867673 0.07871,8.902182 0.344081,13.309016 0.05541,12.850534 11.67639,24.197262 24.49675,24.150242 12.045555,0.2885 24.201948,-8.515798 26.040158,-20.737152 0.8876,-3.822664 -1.07755,-7.958099 2.67862,-10.541627 7.78583,-10.572328 6.77666,-26.370962 -2.06093,-36.026854 C 100.42716,34.001131 90.806603,29.938645 81.301849,30.564149 M 51.18611,46.385466 50.74753,47.07245 Z m 19.041116,30.717862 c 0.223136,1.373419 0.04454,2.613981 0.0021,0.454137 z"
         id="path859"
         inkscape:connector-curvature="0" />
    </g>
    <g
       id="g904">
      <path
         style="font-style:normal;font-variant:normal;font-weight:normal;font-stretch:normal;font-size:medium;line-height:125%;font-family:ChunkFive;-inkscape-font-specification:'ChunkFive, Normal';font-variant-ligatures:normal;font-variant-caps:normal;font-variant-numeric:normal;font-feature-settings:normal;text-align:center;letter-spacing:0px;word-spacing:0px;writing-mode:lr-tb;text-anchor:middle;opacity:1;vector-effect:none;fill:#407eff;fill-opacity:1;stroke:none;stroke-width:0.05238807;stroke-linecap:butt;stroke-linejoin:miter;stroke-miterlimit:4;stroke-dasharray:none;stroke-dashoffset:0;stroke-opacity:1"
         d="m 81.285994,35.420059 c -10.974081,0.02029 -21.367298,6.440904 -27.375203,15.43505 -3.144187,5.15214 -2.325707,12.192574 1.835958,16.529864 1.701337,1.73051 3.845735,3.026595 4.565247,5.952005 0.267946,3.843832 -1.674416,7.540332 -1.000152,11.41755 0.954908,10.338398 10.574787,18.794072 20.882438,18.825392 10.000653,0.27419 19.963338,-6.783236 22.075538,-16.73485 1.16576,-2.796852 -0.3734,-6.356317 0.78849,-8.731507 7.66433,-7.776881 8.74218,-20.791123 2.90711,-29.934478 -4.85553,-8.052109 -14.172889,-13.100469 -23.574164,-12.748995 0,0 -0.552565,-0.01184 -0.552565,-0.01184 0,0 -0.552697,0.0018 -0.552697,0.0018 M 54.922745,49.299833 c -0.738079,1.080112 -0.305474,0.528805 0,0 0,0 0,0 0,0 m 14.866792,27.413312 c 0.29053,2.003935 -0.06148,1.957805 0,0 0,0 0,0 0,0"
         id="path888"
         inkscape:connector-curvature="0" />
    </g>
    <path
       style="font-style:normal;font-variant:normal;font-weight:normal;font-stretch:normal;font-size:medium;line-height:125%;font-family:ChunkFive;-inkscape-font-specification:'ChunkFive, Normal';font-variant-ligatures:normal;font-variant-caps:normal;font-variant-numeric:normal;font-feature-settings:normal;text-align:center;letter-spacing:0px;word-spacing:0px;writing-mode:lr-tb;text-anchor:middle;opacity:1;vector-effect:none;fill:#000000;fill-opacity:1;stroke:none;stroke-width:0.05238807;stroke-linecap:butt;stroke-linejoin:miter;stroke-miterlimit:4;stroke-dasharray:none;stroke-dashoffset:0;stroke-opacity:1"
       d="m 81.358858,40.004277 c -9.584196,0.02651 -18.588921,5.72884 -23.781839,13.602067 -2.114932,3.983366 -0.800458,9.453157 2.980259,11.951716 2.064718,2.444067 5.061194,4.668951 4.397646,8.282392 0.305883,3.50963 -1.68984,6.768989 -1.08067,10.290457 0.520294,5.742705 4.370678,10.889589 9.589711,13.263173 9.112187,4.525818 21.653179,-0.926105 24.157167,-10.895218 0.83245,-3.074597 0.748726,-6.419651 -0.392973,-9.405356 C 105.83445,71.234091 107.56189,58.125635 101.5552,49.824529 97.516602,43.71265 90.293539,39.811487 82.940633,40.042267 c -0.526495,-0.03158 -1.05423,-0.05465 -1.581775,-0.03799 z m 15.182535,35.441763 0.0181,0.04238 z"
       id="path882"
       inkscape:connector-curvature="0" />
    <g
       id="g907">
      <path
         inkscape:connector-curvature="0"
         id="path869"
         d="m 81.419318,43.811279 c -8.110216,-0.02206 -15.5459,4.801424 -20.247066,11.173794 -1.528743,2.553858 -0.595956,6.308518 2.047662,7.737723 0.506057,0.517167 2.600689,3.157305 3.771207,4.499783 1.338855,1.30742 2.807716,2.251325 1.740773,4.275897 -0.787594,2.27312 0.993838,4.655591 -0.20726,6.469624 -2.191545,5.173412 -0.31049,11.730533 4.507651,14.719417 4.860171,3.744844 12.139375,3.124665 16.710451,-0.802926 4.111658,-3.192873 5.821836,-9.11925 3.746374,-13.937671 -1.485018,-2.497517 1.329533,-3.861312 3.032693,-5.123974 2.679296,-2.374046 4.132277,-5.899247 4.685177,-9.377503 C 102.43759,54.538332 95.508265,45.660595 86.738175,44.17973 84.984309,43.892184 83.192604,43.8545 81.419318,43.811279 Z m -6.480223,31.623392 c -0.102065,0.633291 -1.996294,0.486677 -0.280016,0.26158 0.555586,-0.423188 0.412288,0.932562 0.280016,-0.26158 z"
         style="font-style:normal;font-variant:normal;font-weight:normal;font-stretch:normal;font-size:medium;line-height:125%;font-family:ChunkFive;-inkscape-font-specification:'ChunkFive, Normal';font-variant-ligatures:normal;font-variant-caps:normal;font-variant-numeric:normal;font-feature-settings:normal;text-align:center;letter-spacing:0px;word-spacing:0px;writing-mode:lr-tb;text-anchor:middle;opacity:1;vector-effect:none;fill:#407eff;fill-opacity:1;stroke:none;stroke-width:0.14000867;stroke-linecap:butt;stroke-linejoin:miter;stroke-miterlimit:4;stroke-dasharray:none;stroke-dashoffset:0;stroke-opacity:1" />
    </g>
    <g
       id="g910">
      <path
         id="path846"
         d="m 81.467895,46.855538 c -7.204982,0.01373 -13.830634,4.34888 -17.917847,10.090815 -0.899808,2.603311 2.370172,3.692108 3.495411,5.533742 1.603408,2.005913 3.143992,4.343982 5.674458,5.248055 -0.309001,2.326871 -1.720929,4.545188 -0.977322,6.955888 0.935971,2.621031 -0.777454,4.842235 -1.09505,7.317925 -0.411035,4.982258 3.796235,9.465189 8.625618,10.061809 5.817026,0.907597 12.238582,-3.814941 12.086954,-9.922087 -0.2512,-1.930888 -1.308296,-3.72686 -1.270242,-5.736054 -0.30677,-1.662612 0.350737,-3.193757 1.85294,-4.020129 1.787561,-1.283011 3.852644,-2.465902 4.714133,-4.614142 2.752634,-4.871949 1.902179,-11.293456 -1.768393,-15.45578 -2.968184,-3.561477 -7.607133,-5.636804 -12.242975,-5.441919 -0.392266,-0.01757 -0.785061,-0.02438 -1.177685,-0.01812 0,0 0,-3e-6 0,-3e-6"
         style="font-style:normal;font-variant:normal;font-weight:normal;font-stretch:normal;font-size:medium;line-height:125%;font-family:ChunkFive;-inkscape-font-specification:'ChunkFive, Normal';font-variant-ligatures:normal;font-variant-caps:normal;font-variant-numeric:normal;font-feature-settings:normal;text-align:center;letter-spacing:0px;word-spacing:0px;writing-mode:lr-tb;text-anchor:middle;opacity:1;fill:#000000;fill-opacity:1;stroke:none;stroke-width:0.01386101;stroke-linecap:butt;stroke-linejoin:miter;stroke-opacity:1"
         inkscape:connector-curvature="0" />
    </g>
    <g
       id="g913">
      <path
         inkscape:connector-curvature="0"
         id="path835"
         d="m 81.506652,49.281746 c -6.293527,-0.02508 -11.938408,3.813663 -15.709636,8.614979 3.042399,1.889661 4.316719,5.695305 7.44818,7.467992 2.061434,0.963183 2.895673,-1.552445 4.123337,-2.580537 1.240501,-0.877661 2.82936,-1.965127 4.400966,-1.422816 0.699079,1.088042 -1.943532,1.767494 -2.586344,2.771613 -2.915341,2.423912 -5.600596,5.918564 -5.147907,9.928836 -0.100657,1.205244 0.782885,2.531341 1.275776,3.107572 -2.603264,2.659087 -3.158794,7.515789 -0.293681,10.195145 1.980945,1.782343 4.741097,2.873301 7.407377,2.180761 3.67203,-0.734221 7.117542,-4.246525 6.398911,-8.189151 0.05885,-1.644989 -1.987201,-3.307835 -1.885542,-4.317646 1.709726,-1.422017 0.02957,-4.271829 2.237771,-5.548143 1.950146,-1.747828 4.743832,-2.83841 5.631093,-5.516576 2.473426,-4.636019 0.512254,-10.548279 -3.418162,-13.720147 -2.321439,-2.030796 -5.403951,-2.966696 -8.455257,-2.941901 -0.475036,-0.02771 -0.951103,-0.03756 -1.426882,-0.02998 z"
         style="font-style:normal;font-variant:normal;font-weight:normal;font-stretch:normal;font-size:medium;line-height:125%;font-family:ChunkFive;-inkscape-font-specification:'ChunkFive, Normal';font-variant-ligatures:normal;font-variant-caps:normal;font-variant-numeric:normal;font-feature-settings:normal;text-align:center;letter-spacing:0px;word-spacing:0px;writing-mode:lr-tb;text-anchor:middle;fill:#407eff;fill-opacity:1;stroke:none;stroke-width:0.03704396;stroke-linecap:butt;stroke-linejoin:miter;stroke-opacity:1" />
    </g>
    <g
       id="g916">
      <path
         inkscape:connector-curvature="0"
         id="path829"
         d="m 81.755859,51.279297 c -5.135038,-0.0548 -9.95327,2.697986 -13.207031,6.552734 1.828776,1.845703 3.657552,3.691407 5.486328,5.53711 1.654977,-1.847172 3.656364,-3.71015 6.188353,-4.141554 1.397973,-0.06266 3.227538,0.04207 3.980321,1.42694 0.613462,1.20869 -0.312124,2.425916 -1.212494,3.17245 -2.177852,1.976457 -5.03347,3.43993 -6.323917,6.212571 -0.575462,1.40165 -0.25838,2.936437 -0.312799,4.407642 0.0055,0.439478 0.01098,0.878957 0.01647,1.318435 3.132812,0 6.265625,0 9.398437,0 0.04383,-1.115443 -0.09744,-2.251206 0.09072,-3.351313 0.712441,-1.64873 2.460312,-2.475377 3.759072,-3.598855 2.183379,-1.622771 4.18109,-3.9601 4.222477,-6.816158 0.155691,-3.304534 -1.309092,-6.729996 -4.140934,-8.553228 -2.322236,-1.571037 -5.176097,-2.165203 -7.945006,-2.166774 z"
         style="font-style:normal;font-variant:normal;font-weight:normal;font-stretch:normal;font-size:medium;line-height:125%;font-family:ChunkFive;-inkscape-font-specification:'ChunkFive, Normal';font-variant-ligatures:normal;font-variant-caps:normal;font-variant-numeric:normal;font-feature-settings:normal;text-align:center;letter-spacing:0px;word-spacing:0px;writing-mode:lr-tb;text-anchor:middle;fill:#000000;fill-opacity:1;stroke:none;stroke-width:0.03704396;stroke-linecap:butt;stroke-linejoin:miter;stroke-opacity:1" />
    </g>
    <g
       id="g919">
      <path
         inkscape:connector-curvature="0"
         id="path823"
         d="m 74.999967,82.419581 c 0.01171,2.25627 1.742921,4.221467 3.825883,4.910409 1.671353,0.55296 3.560754,0.383341 5.138651,-0.381002 1.601712,-0.770421 2.772469,-2.407818 2.861227,-4.19824 0.149501,-1.908268 -0.904677,-3.803861 -2.536802,-4.775671 -1.760782,-1.063801 -4.044349,-1.247526 -5.945684,-0.456109 -1.932315,0.810965 -3.338458,2.785808 -3.343275,4.900613 z"
         style="font-style:normal;font-variant:normal;font-weight:normal;font-stretch:normal;font-size:medium;line-height:125%;font-family:ChunkFive;-inkscape-font-specification:'ChunkFive, Normal';font-variant-ligatures:normal;font-variant-caps:normal;font-variant-numeric:normal;font-feature-settings:normal;text-align:center;letter-spacing:0px;word-spacing:0px;writing-mode:lr-tb;text-anchor:middle;fill:#000000;fill-opacity:1;stroke:none;stroke-width:0.03704396;stroke-linecap:butt;stroke-linejoin:miter;stroke-opacity:1" />
    </g>
  </g>
</svg>
